<svg width="183" height="68" viewBox="0 0 183 68" fill="none" xmlns="http://www.w3.org/2000/svg">
<circle cx="30" cy="35.9995" r="30" fill="#EDDCDC"/>
<path d="M19 51.2513C20.4445 52.6628 22.1595 53.7825 24.0468 54.5464C25.9342 55.3103 27.9571 55.7035 30 55.7035C32.0429 55.7035 34.0658 55.3103 35.9532 54.5464C37.8405 53.7825 39.5555 52.6628 41 51.2513L30 40.5029L19 51.2513Z" fill="#173D46"/>
<path d="M33.4731 37.1751C33.0215 36.7338 32.4853 36.3837 31.8952 36.1449C31.3051 35.9061 30.6726 35.7831 30.0339 35.7831C29.3952 35.7831 28.7627 35.9061 28.1726 36.1449C27.5825 36.3837 27.0464 36.7338 26.5947 37.1751L30.0339 40.5356L33.4731 37.1751Z" fill="#173D46"/>
<path d="M26.5367 29.1333C26.5367 29.1333 20.6262 31.4227 16.6831 30.2933C12.7399 29.164 9.88858 32.1951 10.3678 34.8322C10.847 37.4693 13.2545 38.7977 17.1311 38.072C21.0077 37.3462 23.3158 34.9148 26.5367 29.1333Z" fill="#173D46"/>
<path d="M26.5367 29.1333C26.5367 29.1333 20.6262 31.4227 16.6831 30.2933C12.7399 29.164 9.88858 32.1951 10.3678 34.8322C10.847 37.4693 13.2545 38.7977 17.1311 38.072C21.0077 37.3462 23.3158 34.9148 26.5367 29.1333Z" stroke="#173D46"/>
<path d="M32.9706 29.1333C32.9706 29.1333 38.8811 31.4227 42.8243 30.2933C46.7674 29.164 49.6187 32.1951 49.1395 34.8322C48.6603 37.4693 46.2529 38.7977 42.3762 38.072C38.4996 37.3462 36.1915 34.9148 32.9706 29.1333Z" fill="#173D46"/>
<path d="M32.9706 29.1333C32.9706 29.1333 38.8811 31.4227 42.8243 30.2933C46.7674 29.164 49.6187 32.1951 49.1395 34.8322C48.6603 37.4693 46.2529 38.7977 42.3762 38.072C38.4996 37.3462 36.1915 34.9148 32.9706 29.1333Z" stroke="#173D46"/>
<path d="M11.3188 26.9149C11.3188 26.9149 17.1556 24.4361 21.1288 25.4102C25.1021 26.3844 27.8604 23.2828 27.3029 20.6917C26.7455 18.1006 24.3006 16.8739 20.4491 17.7323C16.5977 18.5907 14.3642 21.0794 11.3188 26.9149Z" fill="#173D46"/>
<path d="M11.3188 26.9149C11.3188 26.9149 17.1556 24.4361 21.1288 25.4102C25.1021 26.3844 27.8604 23.2828 27.3029 20.6917C26.7455 18.1006 24.3006 16.8739 20.4491 17.7323C16.5977 18.5907 14.3642 21.0794 11.3188 26.9149Z" stroke="#173D46"/>
<path d="M48.6863 26.9149C48.6863 26.9149 42.8496 24.4361 38.8763 25.4102C34.9031 26.3844 32.1447 23.2828 32.7022 20.6917C33.2597 18.1006 35.7046 16.8739 39.556 17.7323C43.4075 18.5907 45.6409 21.0794 48.6863 26.9149Z" fill="#173D46"/>
<path d="M48.6863 26.9149C48.6863 26.9149 42.8496 24.4361 38.8763 25.4102C34.9031 26.3844 32.1447 23.2828 32.7022 20.6917C33.2597 18.1006 35.7046 16.8739 39.556 17.7323C43.4075 18.5907 45.6409 21.0794 48.6863 26.9149Z" stroke="#173D46"/>
<path d="M75.6191 25.9995V32.9995H71.5996V13.0933H78.3809C80.3496 13.0933 81.9173 13.7039 83.084 14.9253C84.2598 16.1466 84.8477 17.7326 84.8477 19.6831C84.8477 21.6336 84.2689 23.174 83.1113 24.3042C81.9538 25.4344 80.3496 25.9995 78.2988 25.9995H75.6191ZM75.6191 22.6499H78.3809C79.1465 22.6499 79.7389 22.3993 80.1582 21.8979C80.5775 21.3966 80.7871 20.6675 80.7871 19.7104C80.7871 18.717 80.5729 17.9285 80.1445 17.3452C79.7161 16.7528 79.1419 16.452 78.4219 16.4429H75.6191V22.6499ZM94.6094 28.9253H89.127L88.0605 32.9995H83.8086L90.0293 13.0933H93.707L99.9688 32.9995H95.6758L94.6094 28.9253ZM90.002 25.5757H93.7207L91.8613 18.48L90.002 25.5757ZM115.76 32.9995H111.74L105.861 19.9429V32.9995H101.842V13.0933H105.861L111.754 26.1636V13.0933H115.76V32.9995ZM118.986 32.9995V13.0933H124.25C126.574 13.0933 128.424 13.8315 129.801 15.3081C131.186 16.7847 131.893 18.8081 131.92 21.3784V24.605C131.92 27.2209 131.227 29.2762 129.842 30.771C128.465 32.2567 126.565 32.9995 124.141 32.9995H118.986ZM123.006 16.4429V29.6636H124.209C125.549 29.6636 126.492 29.3127 127.039 28.6108C127.586 27.8999 127.873 26.6785 127.9 24.9468V21.4878C127.9 19.6284 127.641 18.3341 127.121 17.605C126.602 16.8667 125.717 16.4793 124.469 16.4429H123.006ZM144.02 28.9253H138.537L137.471 32.9995H133.219L139.439 13.0933H143.117L149.379 32.9995H145.086L144.02 28.9253ZM139.412 25.5757H143.131L141.271 18.48L139.412 25.5757ZM81.8125 56.8042C81.8125 55.8589 81.4805 55.1128 80.8164 54.5659C80.1523 54.0112 78.9375 53.4878 77.1719 52.9956C75.4062 52.4956 74.1172 51.9526 73.3047 51.3667C72.1484 50.5386 71.5703 49.4526 71.5703 48.1089C71.5703 46.8042 72.1055 45.7456 73.1758 44.9331C74.2539 44.1128 75.6289 43.7026 77.3008 43.7026C78.4336 43.7026 79.4453 43.9214 80.3359 44.3589C81.2344 44.7964 81.9297 45.4058 82.4219 46.187C82.9141 46.9683 83.1602 47.8394 83.1602 48.8003H81.707C81.707 47.6362 81.3086 46.7026 80.5117 45.9995C79.7148 45.2886 78.6445 44.9331 77.3008 44.9331C75.9961 44.9331 74.957 45.2261 74.1836 45.812C73.4102 46.3901 73.0234 47.1479 73.0234 48.0854C73.0234 48.9526 73.3711 49.6597 74.0664 50.2065C74.7617 50.7534 75.875 51.2378 77.4062 51.6597C78.9375 52.0737 80.0977 52.5073 80.8867 52.9604C81.6758 53.4058 82.2695 53.9409 82.668 54.5659C83.0664 55.1909 83.2656 55.9292 83.2656 56.7808C83.2656 58.1245 82.7266 59.2026 81.6484 60.0151C80.5781 60.8276 79.1641 61.2339 77.4062 61.2339C76.2031 61.2339 75.0977 61.019 74.0898 60.5894C73.0898 60.1597 72.3281 59.5581 71.8047 58.7847C71.2891 58.0112 71.0312 57.1245 71.0312 56.1245H72.4727C72.4727 57.3276 72.9219 58.2769 73.8203 58.9722C74.7188 59.6675 75.9141 60.0151 77.4062 60.0151C78.7344 60.0151 79.8008 59.7222 80.6055 59.1362C81.4102 58.5503 81.8125 57.7729 81.8125 56.8042ZM97.9609 45.1675H92.1133V60.9995H90.6719V45.1675H84.8359V43.937H97.9609V45.1675ZM112.48 43.937V55.5854C112.473 56.7339 112.219 57.7339 111.719 58.5854C111.219 59.437 110.512 60.0933 109.598 60.5542C108.691 61.0073 107.648 61.2339 106.469 61.2339C104.672 61.2339 103.23 60.7456 102.145 59.769C101.066 58.7847 100.508 57.4253 100.469 55.6909V43.937H101.898V55.48C101.898 56.9175 102.309 58.0347 103.129 58.8315C103.949 59.6206 105.062 60.0151 106.469 60.0151C107.875 60.0151 108.984 59.6167 109.797 58.8198C110.617 58.0229 111.027 56.9136 111.027 55.4917V43.937H112.48ZM116.5 60.9995V43.937H121.27C122.668 43.937 123.922 44.2573 125.031 44.8979C126.141 45.5308 127.004 46.4409 127.621 47.6284C128.246 48.8159 128.559 50.1675 128.559 51.6831V53.2534C128.559 54.7769 128.25 56.1284 127.633 57.3081C127.016 58.4878 126.145 59.3979 125.02 60.0386C123.902 60.6792 122.617 60.9995 121.164 60.9995H116.5ZM117.941 45.1675V59.7808H121.176C122.973 59.7808 124.414 59.187 125.5 57.9995C126.586 56.8042 127.129 55.1909 127.129 53.1597V51.6597C127.129 49.6987 126.594 48.1284 125.523 46.9487C124.453 45.769 123.043 45.1753 121.293 45.1675H117.941ZM133.984 60.9995H132.543V43.937H133.984V60.9995ZM151.234 53.394C151.234 54.9644 150.961 56.3433 150.414 57.5308C149.875 58.7183 149.102 59.6323 148.094 60.2729C147.086 60.9136 145.922 61.2339 144.602 61.2339C142.609 61.2339 141 60.5229 139.773 59.1011C138.547 57.6714 137.934 55.7456 137.934 53.3237V51.5659C137.934 50.0112 138.207 48.6362 138.754 47.4409C139.309 46.2378 140.09 45.3159 141.098 44.6753C142.105 44.0269 143.266 43.7026 144.578 43.7026C145.891 43.7026 147.047 44.019 148.047 44.6519C149.055 45.2847 149.832 46.1792 150.379 47.3354C150.926 48.4917 151.211 49.8315 151.234 51.355V53.394ZM149.793 51.5425C149.793 49.4878 149.328 47.8784 148.398 46.7144C147.469 45.5503 146.195 44.9683 144.578 44.9683C142.992 44.9683 141.727 45.5542 140.781 46.7261C139.844 47.8901 139.375 49.519 139.375 51.6128V53.394C139.375 55.4175 139.844 57.0229 140.781 58.2104C141.719 59.3901 142.992 59.98 144.602 59.98C146.234 59.98 147.508 59.3979 148.422 58.2339C149.336 57.062 149.793 55.4331 149.793 53.3472V51.5425Z" fill="#EDDCDC"/>
</svg>
